<svg id="visual" viewBox="0 0 900 200" width="900" height="200" xmlns="http://www.w3.org/2000/svg" xmlns:xlink="http://www.w3.org/1999/xlink" version="1.1"><path d="M0 29L100 68L200 114L300 64L400 39L500 123L600 76L700 72L800 57L900 44L900 201L800 201L700 201L600 201L500 201L400 201L300 201L200 201L100 201L0 201Z" fill="#fcaf3c"></path><path d="M0 121L100 98L200 127L300 46L400 67L500 57L600 125L700 138L800 89L900 121L900 201L800 201L700 201L600 201L500 201L400 201L300 201L200 201L100 201L0 201Z" fill="#ff8b4b"></path><path d="M0 89L100 138L200 136L300 112L400 78L500 111L600 87L700 133L800 75L900 121L900 201L800 201L700 201L600 201L500 201L400 201L300 201L200 201L100 201L0 201Z" fill="#ff6767"></path><path d="M0 153L100 125L200 158L300 93L400 141L500 125L600 135L700 149L800 107L900 119L900 201L800 201L700 201L600 201L500 201L400 201L300 201L200 201L100 201L0 201Z" fill="#ff4a88"></path><path d="M0 127L100 139L200 162L300 171L400 119L500 115L600 164L700 127L800 150L900 153L900 201L800 201L700 201L600 201L500 201L400 201L300 201L200 201L100 201L0 201Z" fill="#eb3fad"></path><path d="M0 140L100 162L200 140L300 135L400 166L500 152L600 142L700 155L800 163L900 176L900 201L800 201L700 201L600 201L500 201L400 201L300 201L200 201L100 201L0 201Z" fill="#c14ad2"></path><path d="M0 166L100 164L200 173L300 180L400 157L500 179L600 164L700 161L800 158L900 164L900 201L800 201L700 201L600 201L500 201L400 201L300 201L200 201L100 201L0 201Z" fill="#715df2"></path></svg>